<svg width="312" height="296" viewBox="0 0 312 296" fill="none" xmlns="http://www.w3.org/2000/svg">
<path d="M33.4168 248.858C33.4168 248.858 -13.5907 196.739 53.2506 179.995C120.092 163.25 137.704 148.915 169.304 105.525C200.903 62.1363 336.862 73.741 281.56 250.861L33.4168 248.858Z" fill="#E2EEFC"/>
<path d="M51.9574 146.877C95.7746 147.88 139.328 125.024 161.717 89.278C166.04 82.3753 164.319 72.6147 157.864 67.4229C151.409 62.231 140.977 62.2177 134.508 67.3948C123.798 75.9625 109.598 79.3398 95.8199 81.7197C82.042 84.0995 67.8194 85.8282 55.3597 91.908C42.9 97.9878 32.3014 109.618 32.4964 122.907C32.6914 136.196 47.1682 146.767 51.9574 146.877Z" fill="#E2EEFC"/>
<path d="M277.089 188.789H225.921V247.025H277.089V188.789Z" fill="#CCDEFF"/>
<path d="M241.767 191.836H229.131V194.056H241.767V191.836Z" fill="#E2EEFC"/>
<path d="M257.055 191.836H244.419V194.056H257.055V191.836Z" fill="#E2EEFC"/>
<path d="M272.031 191.836H259.395V194.056H272.031V191.836Z" fill="#E2EEFC"/>
<path d="M241.923 195.832H229.287V198.052H241.923V195.832Z" fill="#E2EEFC"/>
<path d="M257.211 195.832H244.575V198.052H257.211V195.832Z" fill="#E2EEFC"/>
<path d="M272.187 195.832H259.551V198.052H272.187V195.832Z" fill="#E2EEFC"/>
<path d="M241.923 199.828H229.287V202.048H241.923V199.828Z" fill="#E2EEFC"/>
<path d="M257.211 199.828H244.575V202.048H257.211V199.828Z" fill="#E2EEFC"/>
<path d="M272.187 199.828H259.551V202.048H272.187V199.828Z" fill="#E2EEFC"/>
<path d="M242.079 203.824H229.443V206.044H242.079V203.824Z" fill="#E2EEFC"/>
<path d="M257.367 203.824H244.731V206.044H257.367V203.824Z" fill="#E2EEFC"/>
<path d="M272.343 203.824H259.707V206.044H272.343V203.824Z" fill="#E2EEFC"/>
<path d="M242.235 207.82H229.599V210.04H242.235V207.82Z" fill="#E2EEFC"/>
<path d="M257.523 207.82H244.887V210.04H257.523V207.82Z" fill="#E2EEFC"/>
<path d="M272.499 207.82H259.863V210.04H272.499V207.82Z" fill="#E2EEFC"/>
<path d="M242.235 211.816H229.599V214.036H242.235V211.816Z" fill="#E2EEFC"/>
<path d="M257.523 211.816H244.887V214.036H257.523V211.816Z" fill="#E2EEFC"/>
<path d="M272.499 211.816H259.863V214.036H272.499V211.816Z" fill="#E2EEFC"/>
<path d="M272.499 217.906H229.599V232.706H272.499V217.906Z" fill="#E2EEFC"/>
<path d="M278.235 175.667H262.323V247.025H278.235V175.667Z" fill="#CCDEFF"/>
<path d="M281.412 182.201H276.732V247.025H281.412V182.201Z" fill="#CCDEFF"/>
<path d="M71.3107 209.583H46.6627V247.175H71.3107V209.583Z" fill="#CCDEFF"/>
<path d="M67.5776 213.295H49.2476V216.699H67.5776V213.295Z" fill="#E2EEFC"/>
<path d="M67.5776 218.981H49.2476V222.385H67.5776V218.981Z" fill="#E2EEFC"/>
<path d="M67.587 224.665H49.257V228.069H67.587V224.665Z" fill="#E2EEFC"/>
<path d="M67.587 230.235H49.257V233.639H67.587V230.235Z" fill="#E2EEFC"/>
<path d="M89.2663 197.595H64.6183V247.175H89.2663V197.595Z" fill="#CCDEFF"/>
<path d="M142.011 207.363H86.9263V247.175H142.011V207.363Z" fill="#CCDEFF"/>
<path d="M46.6627 225.123H32.9347V247.175H46.6627V225.123Z" fill="#CCDEFF"/>
<path d="M96.5422 188.694H96.0742V207.363H96.5422V188.694Z" fill="#CCDEFF"/>
<path d="M101.796 192.992H101.328V207.363H101.796V192.992Z" fill="#CCDEFF"/>
<path d="M92.3941 185.715H91.3021V207.363H92.3941V185.715Z" fill="#CCDEFF"/>
<path d="M54.0821 204.194H49.5581V209.583H54.0821V204.194Z" fill="#CCDEFF"/>
<path d="M76.3199 191.771H66.4919V197.593H76.3199V191.771Z" fill="#CCDEFF"/>
<path d="M84.9155 185.715H80.7035V197.595H84.9155V185.715Z" fill="#CCDEFF"/>
<path d="M60.294 196.538H56.55V209.583H60.294V196.538Z" fill="#CCDEFF"/>
<path d="M38.3167 227.269H34.6507V230.747H38.3167V227.269Z" fill="#E2EEFC"/>
<path d="M44.3227 227.269H40.6567V230.747H44.3227V227.269Z" fill="#E2EEFC"/>
<path d="M38.3167 233.115H34.6507V236.593H38.3167V233.115Z" fill="#E2EEFC"/>
<path d="M44.3227 233.115H40.6567V236.593H44.3227V233.115Z" fill="#E2EEFC"/>
<path d="M38.3167 238.961H34.6507V242.439H38.3167V238.961Z" fill="#E2EEFC"/>
<path d="M44.3227 238.961H40.6567V242.439H44.3227V238.961Z" fill="#E2EEFC"/>
<path d="M68.991 200.746H67.587V245.59H68.991V200.746Z" fill="#E2EEFC"/>
<path d="M75.231 200.746H73.827V245.59H75.231V200.746Z" fill="#E2EEFC"/>
<path d="M80.8486 200.746H79.4446V245.59H80.8486V200.746Z" fill="#E2EEFC"/>
<path d="M86.7766 200.746H85.3726V245.59H86.7766V200.746Z" fill="#E2EEFC"/>
<path d="M134.439 207.764H109.791V245.356H134.439V207.764Z" fill="#CCDEFF"/>
<path d="M130.705 211.477H112.375V214.881H130.705V211.477Z" fill="#E2EEFC"/>
<path d="M130.705 217.162H112.375V220.566H130.705V217.162Z" fill="#E2EEFC"/>
<path d="M130.715 222.848H112.385V226.252H130.715V222.848Z" fill="#E2EEFC"/>
<path d="M130.715 228.417H112.385V231.821H130.715V228.417Z" fill="#E2EEFC"/>
<path d="M152.395 195.776H127.747V245.356H152.395V195.776Z" fill="#CCDEFF"/>
<path d="M205.14 205.544H150.055V245.356H205.14V205.544Z" fill="#CCDEFF"/>
<path d="M109.791 223.304H96.0632V245.356H109.791V223.304Z" fill="#CCDEFF"/>
<path d="M159.669 186.877H159.201V205.545H159.669V186.877Z" fill="#CCDEFF"/>
<path d="M164.925 191.173H164.457V205.544H164.925V191.173Z" fill="#CCDEFF"/>
<path d="M155.523 183.896H154.431V205.544H155.523V183.896Z" fill="#CCDEFF"/>
<path d="M117.211 202.377H112.687V207.765H117.211V202.377Z" fill="#CCDEFF"/>
<path d="M139.447 189.954H129.619V195.776H139.447V189.954Z" fill="#CCDEFF"/>
<path d="M148.044 183.896H143.832V195.776H148.044V183.896Z" fill="#CCDEFF"/>
<path d="M123.423 194.721H119.679V207.765H123.423V194.721Z" fill="#CCDEFF"/>
<path d="M101.445 225.45H97.7792V228.928H101.445V225.45Z" fill="#E2EEFC"/>
<path d="M107.451 225.45H103.785V228.928H107.451V225.45Z" fill="#E2EEFC"/>
<path d="M101.445 231.296H97.7792V234.774H101.445V231.296Z" fill="#E2EEFC"/>
<path d="M107.451 231.296H103.785V234.774H107.451V231.296Z" fill="#E2EEFC"/>
<path d="M101.445 237.142H97.7792V240.62H101.445V237.142Z" fill="#E2EEFC"/>
<path d="M107.451 237.142H103.785V240.62H107.451V237.142Z" fill="#E2EEFC"/>
<path d="M132.12 198.927H130.716V243.771H132.12V198.927Z" fill="#E2EEFC"/>
<path d="M138.36 198.927H136.956V243.771H138.36V198.927Z" fill="#E2EEFC"/>
<path d="M143.977 198.927H142.573V243.771H143.977V198.927Z" fill="#E2EEFC"/>
<path d="M149.905 198.927H148.501V243.771H149.905V198.927Z" fill="#E2EEFC"/>
<path d="M197.537 204.484H172.889V242.076H197.537V204.484Z" fill="#CCDEFF"/>
<path d="M193.802 208.198H175.472V211.602H193.802V208.198Z" fill="#E2EEFC"/>
<path d="M193.802 213.882H175.472V217.286H193.802V213.882Z" fill="#E2EEFC"/>
<path d="M193.811 219.567H175.481V222.971H193.811V219.567Z" fill="#E2EEFC"/>
<path d="M193.811 225.138H175.481V228.542H193.811V225.138Z" fill="#E2EEFC"/>
<path d="M215.492 192.496H190.844V242.076H215.492V192.496Z" fill="#CCDEFF"/>
<path d="M268.237 202.264H213.152V242.076H268.237V202.264Z" fill="#CCDEFF"/>
<path d="M172.889 220.024H159.161V242.076H172.889V220.024Z" fill="#CCDEFF"/>
<path d="M222.766 183.595H222.298V202.264H222.766V183.595Z" fill="#CCDEFF"/>
<path d="M228.021 187.893H227.553V202.264H228.021V187.893Z" fill="#CCDEFF"/>
<path d="M218.618 180.616H217.526V202.264H218.618V180.616Z" fill="#CCDEFF"/>
<path d="M180.306 199.096H175.782V204.484H180.306V199.096Z" fill="#CCDEFF"/>
<path d="M202.544 186.674H192.716V192.496H202.544V186.674Z" fill="#CCDEFF"/>
<path d="M211.141 180.616H206.929V192.496H211.141V180.616Z" fill="#CCDEFF"/>
<path d="M186.518 191.441H182.774V204.486H186.518V191.441Z" fill="#CCDEFF"/>
<path d="M164.543 222.17H160.877V225.648H164.543V222.17Z" fill="#E2EEFC"/>
<path d="M170.549 222.17H166.883V225.648H170.549V222.17Z" fill="#E2EEFC"/>
<path d="M164.543 228.016H160.877V231.494H164.543V228.016Z" fill="#E2EEFC"/>
<path d="M170.549 228.016H166.883V231.494H170.549V228.016Z" fill="#E2EEFC"/>
<path d="M164.543 233.862H160.877V237.34H164.543V233.862Z" fill="#E2EEFC"/>
<path d="M170.549 233.862H166.883V237.34H170.549V233.862Z" fill="#E2EEFC"/>
<path d="M195.215 195.647H193.811V240.491H195.215V195.647Z" fill="#E2EEFC"/>
<path d="M201.455 195.647H200.051V240.491H201.455V195.647Z" fill="#E2EEFC"/>
<path d="M207.073 195.647H205.669V240.491H207.073V195.647Z" fill="#E2EEFC"/>
<path d="M213.002 195.647H211.598V240.491H213.002V195.647Z" fill="#E2EEFC"/>
<path d="M225.921 228.903H200.649V247.153H225.921V228.903Z" fill="#CCDEFF"/>
<path d="M249.639 242.547H248.703V243.435H249.639V242.547Z" fill="#CCDEFF"/>
<path d="M61.8571 88.7319H50.9371V246.45H61.8571V88.7319Z" fill="#EC7F37"/>
<path d="M88.5472 106.32H44.9795V119.326H88.5472V106.32Z" fill="#FEBE3D"/>
<path d="M24.2455 111.913L44.9795 99.1511V124.674L24.2455 111.913Z" fill="#FEBE3D"/>
<path d="M61.8571 119.326H50.9371V121.842H61.8571V119.326Z" fill="#A54545"/>
<path d="M88.5472 119.149H44.9795V120.185H88.5472V119.149Z" fill="#F8A23A"/>
<path d="M88.5472 106.32H44.9795V107.695H88.5472V106.32Z" fill="#FCE373"/>
<path d="M212.839 72.0849L208.964 70.9009C210.524 66.5142 217.375 64.9113 220.898 68.1126C219.049 66.0139 220.586 62.2029 223.439 61.8092C226.292 61.4156 228.899 64.6582 227.762 67.1683C229.969 64.7544 234.743 65.3168 236.259 68.1703C238.079 66.0302 242.064 66.0983 243.805 68.2946C251.993 66.8418 260.447 67.625 268.184 70.5531L199.036 73.7366C204.015 72.8767 208.995 72.0138 212.839 72.0849Z" fill="#E2EEFC"/>
<path d="M290.352 197.056H221.757V228.664H290.352V197.056Z" fill="#FEBE3D"/>
<path d="M238.49 197.056H221.757V228.664H238.49V197.056Z" fill="#F8A23A"/>
<path d="M270.496 167.28H230.123V197.055H270.496V167.28Z" fill="#FEBE3D"/>
<path d="M240.315 167.28H230.123V197.055H240.315V167.28Z" fill="#F8A23A"/>
<path d="M230.019 197.129L240.313 196.241L261.191 197.265L230.019 197.129Z" fill="#EC7F37"/>
<path d="M288.308 199.767H274.295V202.692H288.308V199.767Z" fill="white"/>
<path d="M288.533 204.23H274.519V207.154H288.533V204.23Z" fill="white"/>
<path d="M269.033 168.995H259.233V171.92H269.033V168.995Z" fill="white"/>
<path d="M269.033 172.993H259.233V175.917H269.033V172.993Z" fill="white"/>
<path d="M290.352 197.056H221.757V228.664H290.352V197.056Z" fill="#FEBE3D"/>
<path d="M238.49 197.056H221.757V228.664H238.49V197.056Z" fill="#F8A23A"/>
<path d="M270.496 167.28H230.123V197.055H270.496V167.28Z" fill="#FEBE3D"/>
<path d="M240.315 167.28H230.123V197.055H240.315V167.28Z" fill="#F8A23A"/>
<path d="M230.019 197.129L240.313 196.241L261.191 197.265L230.019 197.129Z" fill="#EC7F37"/>
<path d="M288.308 199.767H274.295V202.692H288.308V199.767Z" fill="white"/>
<path d="M288.533 204.23H274.519V207.154H288.533V204.23Z" fill="white"/>
<path d="M269.033 168.995H259.233V171.92H269.033V168.995Z" fill="white"/>
<path d="M269.033 172.993H259.233V175.917H269.033V172.993Z" fill="white"/>
<path d="M77.1217 43.956L80.911 42.547C79.0702 38.255 72.1188 37.071 68.8163 40.475C70.5214 38.2698 68.7352 34.555 65.8616 34.3375C62.9881 34.1199 60.5951 37.5076 61.9024 39.9437C59.539 37.666 54.8122 38.514 53.4877 41.4518C51.5284 39.4242 47.5597 39.7276 45.9654 42.0261C37.6975 41.065 29.312 42.3523 21.7854 45.7379L91.0088 44.7833C85.981 44.2135 80.9531 43.6482 77.1217 43.956Z" fill="#E2EEFC"/>
<path d="M293.118 246.72H18.8807V255.6H293.118V246.72Z" fill="#1A1A35"/>
<path d="M235.998 131.317C235.998 123.029 242.892 116.319 251.397 116.319C259.902 116.319 266.796 123.034 266.796 131.317C266.796 139.601 252.026 154.758 252.026 154.758C252.026 154.758 235.998 139.601 235.998 131.317Z" fill="#F75C3D"/>
<path d="M251.397 139.25C256.006 139.25 259.742 135.706 259.742 131.334C259.742 126.962 256.006 123.417 251.397 123.417C246.789 123.417 243.053 126.962 243.053 131.334C243.053 135.706 246.789 139.25 251.397 139.25Z" fill="#1A1A35"/>
<path d="M215.882 230.732C215.882 230.182 216.112 229.655 216.522 229.267C216.931 228.878 217.487 228.66 218.066 228.66H289.046C289.625 228.66 290.181 228.878 290.59 229.267C291 229.655 291.23 230.182 291.23 230.732C291.23 231.282 291 231.809 290.59 232.197C290.181 232.586 289.625 232.804 289.046 232.804H218.066C217.487 232.804 216.931 232.586 216.522 232.197C216.112 231.809 215.882 231.282 215.882 230.732Z" fill="#1A1A35"/>
<path d="M199.034 134.331C199.034 133.781 199.264 133.254 199.674 132.866C200.083 132.477 200.639 132.259 201.218 132.259H213.698C214.277 132.259 214.833 132.477 215.243 132.866C215.652 133.254 215.882 133.781 215.882 134.331C215.882 134.88 215.652 135.407 215.243 135.796C214.833 136.184 214.277 136.403 213.698 136.403H201.218C200.639 136.403 200.083 136.184 199.674 135.796C199.264 135.407 199.034 134.88 199.034 134.331Z" fill="#E44531"/>
<path d="M215.882 234.675C215.303 234.675 214.747 234.456 214.338 234.068C213.928 233.679 213.698 233.152 213.698 232.603V128.707C213.698 128.157 213.928 127.63 214.338 127.242C214.747 126.853 215.303 126.635 215.882 126.635C216.461 126.635 217.017 126.853 217.426 127.242C217.836 127.63 218.066 128.157 218.066 128.707V232.603C218.066 233.152 217.836 233.679 217.426 234.068C217.017 234.456 216.461 234.675 215.882 234.675Z" fill="#1A1A35"/>
<path d="M201.218 128.707C201.218 128.157 201.448 127.63 201.858 127.242C202.267 126.853 202.823 126.635 203.402 126.635H215.882C216.461 126.635 217.017 126.853 217.426 127.242C217.836 127.63 218.066 128.157 218.066 128.707C218.066 129.256 217.836 129.783 217.426 130.172C217.017 130.56 216.461 130.779 215.882 130.779H203.402C202.823 130.779 202.267 130.56 201.858 130.172C201.448 129.783 201.218 129.256 201.218 128.707Z" fill="#F75C3D"/>
<path d="M216.055 251.16C222 251.16 226.819 246.588 226.819 240.948C226.819 235.309 222 230.736 216.055 230.736C210.111 230.736 205.291 235.309 205.291 240.948C205.291 246.588 210.111 251.16 216.055 251.16Z" fill="#1A1A35"/>
<path d="M222.818 242.314C223.611 238.772 221.227 235.291 217.494 234.538C213.76 233.786 210.091 236.048 209.298 239.59C208.505 243.132 210.889 246.613 214.623 247.365C218.356 248.117 222.025 245.856 222.818 242.314Z" fill="#38385C"/>
<path d="M135.729 245.28L117.228 243.003C117.337 242.073 117.515 241.151 117.76 240.244C118.877 239.959 119.984 239.641 121.083 239.289C121.124 239.674 121.257 240.044 121.471 240.373C121.816 240.861 122.547 241.157 123.075 240.852C122.995 240.134 122.919 239.42 122.839 238.7C123.067 238.622 123.29 238.54 123.518 238.456C123.518 238.567 123.518 238.678 123.518 238.788C123.499 239.195 123.463 239.609 123.577 240.003C123.691 240.396 123.993 240.768 124.416 240.848C124.839 240.928 125.327 240.586 125.266 240.183C125.155 239.43 125.043 238.677 124.93 237.922C125.165 237.83 125.397 237.735 125.628 237.641C125.759 238.56 125.889 239.481 126.018 240.402C126.504 240.698 127.184 240.278 127.337 239.751C127.419 239.395 127.398 239.025 127.277 238.68C127.227 238.501 127.163 238.323 127.104 238.15C127.104 238.125 127.085 238.098 127.078 238.073C126.961 237.763 126.891 237.438 126.872 237.109C127.075 237.022 127.276 236.932 127.475 236.84C127.513 236.892 127.553 236.942 127.594 236.988C128.512 238.135 129.803 238.964 131.268 239.345C132.732 239.727 134.288 239.64 135.695 239.098C135.884 239.024 136.071 238.95 136.25 238.856C136.085 240.944 135.923 243.016 135.729 245.28Z" fill="#F75C3D"/>
<path d="M135.609 246.618C129.449 245.738 123.285 244.856 117.084 244.088C117.129 243.725 117.178 243.361 117.228 243.003C123.396 243.763 129.563 244.523 135.729 245.28C135.689 245.718 135.65 246.164 135.609 246.618Z" fill="black"/>
<path d="M126.012 240.401C125.883 239.48 125.753 238.56 125.622 237.639C126.037 237.467 126.452 237.29 126.87 237.108C126.89 237.437 126.959 237.761 127.076 238.071C127.084 238.096 127.095 238.123 127.103 238.148C127.162 238.321 127.226 238.499 127.276 238.678C127.397 239.024 127.417 239.394 127.335 239.75C127.177 240.278 126.497 240.7 126.012 240.401ZM124.41 240.846C123.987 240.768 123.686 240.393 123.571 240.001C123.455 239.609 123.493 239.193 123.511 238.786C123.511 238.677 123.511 238.566 123.511 238.455C123.979 238.284 124.447 238.104 124.915 237.919C125.03 238.673 125.142 239.426 125.252 240.18C125.321 240.584 124.831 240.923 124.41 240.846ZM123.075 240.852C122.547 241.159 121.816 240.861 121.471 240.373C121.256 240.044 121.123 239.674 121.083 239.289C121.671 239.103 122.257 238.906 122.839 238.697C122.917 239.42 122.995 240.134 123.075 240.852Z" fill="white"/>
<path d="M135.687 239.1C134.28 239.642 132.724 239.728 131.26 239.347C129.795 238.965 128.504 238.137 127.586 236.989C128.333 235.259 128.729 233.411 128.755 231.542C131.695 232.307 134.634 233.069 137.467 233.785C136.875 235.556 136.282 237.328 135.687 239.1Z" fill="#FBB8A5"/>
<path d="M176.966 235.099C171.485 237.884 166.004 240.671 160.524 243.46C160.042 242.643 159.622 241.795 159.265 240.922C159.993 240.072 160.699 239.203 161.384 238.313C161.653 238.603 161.989 238.831 162.365 238.98C162.945 239.187 163.722 239.024 163.964 238.486L162.452 236.865C162.589 236.676 162.72 236.486 162.855 236.292C162.925 236.381 162.989 236.473 163.053 236.565C163.287 236.907 163.511 237.263 163.845 237.521C164.179 237.778 164.653 237.913 165.045 237.744C165.436 237.576 165.625 237.029 165.329 236.735C164.777 236.184 164.223 235.633 163.667 235.082C163.803 234.877 163.933 234.672 164.064 234.468C164.733 235.142 165.405 235.822 166.073 236.5C166.65 236.474 166.945 235.76 166.745 235.243C166.594 234.908 166.35 234.618 166.04 234.404C165.884 234.287 165.728 234.176 165.572 234.068L165.504 234.021C165.218 233.833 164.963 233.607 164.745 233.35C164.856 233.167 164.965 232.983 165.071 232.798C165.134 232.819 165.198 232.838 165.262 232.856C166.712 233.283 168.27 233.245 169.696 232.747C171.121 232.25 172.334 231.32 173.146 230.103C173.254 229.939 173.357 229.771 173.45 229.6C174.594 231.371 175.739 233.153 176.966 235.099Z" fill="#F75C3D"/>
<path d="M177.684 236.254C172.132 238.936 166.58 241.617 161.062 244.416C160.877 244.095 160.692 243.772 160.513 243.454L176.96 235.099C177.203 235.478 177.444 235.862 177.684 236.254Z" fill="black"/>
<path d="M166.07 236.491L164.061 234.459C164.293 234.089 164.529 233.719 164.744 233.341C164.961 233.598 165.217 233.824 165.502 234.012L165.571 234.059C165.727 234.167 165.883 234.277 166.039 234.395C166.349 234.609 166.593 234.899 166.744 235.234C166.943 235.748 166.649 236.466 166.07 236.491ZM165.048 237.737C164.656 237.906 164.182 237.768 163.848 237.513C163.515 237.259 163.29 236.899 163.056 236.557C162.992 236.467 162.928 236.374 162.858 236.285C163.135 235.887 163.407 235.481 163.672 235.074C164.227 235.625 164.781 236.176 165.333 236.727C165.62 237.022 165.43 237.568 165.048 237.737ZM163.956 238.478C163.714 239.019 162.937 239.18 162.357 238.973C161.98 238.824 161.645 238.596 161.376 238.305C161.739 237.829 162.095 237.346 162.444 236.856C162.95 237.399 163.454 237.94 163.956 238.478Z" fill="white"/>
<path d="M173.144 230.094C172.332 231.311 171.119 232.241 169.694 232.738C168.269 233.236 166.711 233.274 165.26 232.847C164.807 231.027 163.997 229.305 162.872 227.771C165.733 226.77 168.592 225.768 171.335 224.788C171.939 226.555 172.542 228.324 173.144 230.094Z" fill="#FBB8A5"/>
<path d="M159.26 230.731L135.619 133.943L160.284 141.257L175.235 224.834L159.26 230.731Z" fill="#1A1A35"/>
<path d="M125.989 233.343L132.194 139.354L158.02 144.919L140.951 234.602L125.989 233.343Z" fill="#38385C"/>
<path d="M132.488 90.724C133.539 90.6663 133.477 91.02 134.247 91.7023C134.544 91.9903 134.78 92.3293 134.943 92.7013C135.806 94.4557 136.152 96.3993 135.943 98.3253C137.913 96.6535 140.189 95.3379 142.659 94.4432C141.556 92.9913 140.962 91.2538 140.467 89.5267C140.322 88.9327 140.113 88.3544 139.843 87.801C139.72 87.5437 139.534 87.3183 139.3 87.1439C138.893 86.8686 138.347 86.8671 137.853 86.9396C136.519 87.135 135.307 87.7758 134.162 88.4537C133.287 88.9717 132.432 89.5178 131.595 90.092C131.304 90.2918 132.513 90.536 132.485 90.8794" fill="#FBB089"/>
<path d="M136.069 113.748C136.069 113.748 121.992 121.517 118.491 119.195C118.491 119.195 107.933 117.253 102.04 91.9169C101.866 91.1759 101.697 90.4137 101.533 89.6303L105.589 88.0408C105.589 88.0408 106.298 88.8489 107.428 90.2253C110.504 93.9697 116.686 101.917 120.103 109.193C120.103 109.193 130.848 99.5907 137.565 97.3337L136.069 113.748Z" fill="#E44531"/>
<path d="M135.538 99.0786C134.956 99.0964 134.62 99.9044 135.032 100.294C134.219 100.474 133.893 101.384 133.719 102.16C131.14 113.587 131.464 125.396 130.839 137.066C130.747 138.777 130.633 140.496 130.215 142.164C132.898 142.316 135.591 142.203 138.25 141.827C140.319 141.531 142.387 141.087 144.475 141.195C146.373 141.299 148.206 141.865 150.077 142.19C152.952 142.686 155.906 142.61 158.749 141.966C159.418 139.847 159.315 137.581 159.075 135.38C158.392 129.102 156.661 122.975 154.938 116.88C154.204 114.286 153.463 111.675 152.262 109.243C151.532 107.763 150.637 106.366 149.744 104.97L143.863 95.7723C143.693 95.5074 143.498 95.2217 143.186 95.1255C142.74 94.9879 142.292 95.2957 141.927 95.5695C139.794 97.2081 137.403 98.5195 134.842 99.456" fill="#F75C3D"/>
<path d="M143.331 92.6006C140.018 94.2616 136.83 96.1373 133.789 98.2143C134.14 98.7115 134.348 99.2868 134.394 99.8837C134.439 100.481 134.32 101.078 134.048 101.618C137.585 98.7935 141.432 96.3393 145.525 94.2982C144.778 93.7222 144 93.1828 143.195 92.682" fill="#38385C"/>
<path d="M181.058 118.804H119.551V150.068H181.058V118.804Z" fill="#FEBE3D"/>
<path d="M135.077 118.804H119.551V150.068H135.077V118.804Z" fill="#F8A23A"/>
<path d="M178.829 120.604H163.9V123.673H178.829V120.604Z" fill="white"/>
<path d="M178.829 124.801H163.9V127.871H178.829V124.801Z" fill="white"/>
<path d="M140.615 95.386L143.692 94.35C143.692 94.35 144.731 93.2563 152.348 100.282C159.966 107.307 171.179 123.632 171.179 123.632L156.047 148.105L151.097 145.098L157.839 123.342C157.839 123.342 122.407 88.0793 148.088 96.5833" fill="#E44531"/>
<path d="M151.164 144.929C149.997 145.241 149.078 145.839 148.044 146.421C147.924 146.47 147.821 146.549 147.745 146.65C147.669 146.751 147.624 146.869 147.613 146.992C147.295 148.282 146.81 149.53 146.172 150.708C147.481 151.049 148.828 151.244 150.184 151.289C150.36 151.305 150.538 151.288 150.707 151.238C150.916 151.146 151.094 150.999 151.219 150.815C151.538 150.412 151.806 149.974 152.014 149.51C153.549 149.214 154.97 149.144 156.047 148.104C154.679 147.488 153.467 146.258 152.178 145.509C151.824 145.303 151.504 145.065 151.142 144.917" fill="#FBB089"/>
<path d="M144.128 75.9092C144.284 75.8781 144.425 75.8426 144.568 75.8041L144.659 75.779L144.57 75.8041C144.423 75.8411 144.277 75.8781 144.128 75.9092Z" fill="#E1C2B0"/>
<path d="M127.296 83.2944C127.274 83.6096 127.281 83.9259 127.315 84.2401C127.463 85.7734 127.967 86.5223 128.616 86.8109C128.662 86.8319 128.709 86.8502 128.758 86.8656C129.137 86.9807 129.544 86.9915 129.929 86.8967C129.773 85.9258 129.648 84.9934 129.552 84.1824C129.48 83.6037 129.425 83.0872 129.396 82.658C129.177 82.806 128.399 81.9639 128.399 81.9639C127.722 82.0985 127.388 82.6595 127.296 83.2944ZM137.895 93.4709C137.895 93.4709 137.895 93.4709 137.895 93.4561C137.895 93.4413 137.884 93.4694 137.895 93.4709ZM134.775 92.244C135.288 92.392 136.082 91.1872 136.491 91.2805C137.016 91.4018 137.416 91.4744 137.6 91.5054L137.64 91.5128V91.535L137.67 91.5173H137.704V91.4951C137.798 91.4403 138.002 91.3204 138.274 91.1487C138.458 91.0348 138.673 90.8942 138.909 90.7358C139.331 90.4502 140.523 90.505 141.013 90.1083C141.107 90.8483 140.87 91.1562 141.372 92.1714C141.286 92.2707 141.195 92.3655 141.099 92.4556C140.801 92.7423 140.466 92.991 140.1 93.1956C139.582 93.4842 139.014 93.6846 138.422 93.7876C137.912 93.8782 137.391 93.8971 136.876 93.8438C136.373 93.7919 135.881 93.6661 135.419 93.4709C135.307 93.4235 135.319 93.3465 135.211 93.2918C135.361 92.6006 135.509 94.3485 134.784 92.244H134.775ZM143.484 87.283C143.933 87.5211 144.447 87.6273 144.96 87.5879C145.092 87.5714 145.222 87.5385 145.345 87.4902C145.985 87.2401 146.537 86.5489 146.858 85.1222C147.202 83.5919 146.868 82.9717 146.319 82.7927H146.311C146.242 82.8555 146.161 82.9057 146.072 82.9407C145.776 83.2219 144.612 83.2707 144.422 83.5845C144.389 83.7399 144.351 83.9056 144.311 84.0803C144.294 84.1572 144.275 84.2283 144.256 84.3171L144.228 84.4384L144.167 84.6871C144.167 84.6989 144.167 84.7108 144.158 84.7241C144.121 84.8721 144.083 85.0304 144.043 85.1873C144.03 85.2391 144.016 85.2939 144.002 85.3471V85.3664C143.982 85.4478 143.958 85.5307 143.938 85.6135C143.918 85.6964 143.905 85.7379 143.888 85.8015C143.762 86.2751 143.629 86.7724 143.484 87.283Z" fill="#E88A78"/>
<path d="M131.876 80.398L135.675 79.6773C135.563 79.6201 135.447 79.5706 135.328 79.5293C134.809 79.3574 134.252 79.3152 133.711 79.4067C133.17 79.4982 132.663 79.7203 132.238 80.0517C132.106 80.1561 131.985 80.272 131.876 80.398Z" fill="#FFECE6"/>
<path d="M129.382 82.658C129.418 83.0872 129.474 83.6052 129.538 84.1839C129.634 84.9949 129.765 85.9273 129.915 86.8982C129.982 87.3422 130.054 87.7862 130.129 88.2302C130.285 89.1656 131.056 90.0536 132.001 90.8187C132.604 91.2968 133.244 91.7302 133.917 92.1152C134.375 92.3816 134.814 92.6095 135.185 92.7945C135.664 93.0328 136.034 93.1941 136.204 93.2681L136.241 93.2859L136.274 93.2992L136.307 93.2888C136.411 93.2563 136.64 93.1882 136.948 93.0831C137.155 93.0136 137.4 92.9351 137.668 92.8271C138.15 92.6465 138.715 92.4171 139.292 92.1433C140.016 91.8076 140.705 91.4077 141.35 90.949C142.141 90.3703 142.773 89.6984 142.997 88.9465C143.164 88.3871 143.325 87.8291 143.476 87.2874C143.621 86.7768 143.754 86.2796 143.876 85.8074C143.891 85.7438 143.908 85.6816 143.926 85.6195C143.943 85.5573 143.969 85.4522 143.99 85.3723V85.3531C144.002 85.2998 144.018 85.245 144.03 85.1932C144.071 85.0334 144.11 84.8795 144.146 84.73C144.149 84.7178 144.153 84.7055 144.155 84.693C144.176 84.6072 144.196 84.5243 144.216 84.4444L144.244 84.323C144.263 84.2416 144.281 84.1632 144.298 84.0862C144.339 83.9116 144.376 83.7443 144.409 83.5904C144.4 83.6058 144.393 83.6222 144.387 83.6392C144.351 83.4069 144.316 83.173 144.278 82.9407C144.005 82.4967 143.6 81.8292 143.132 81.0685L142.896 80.66L142.559 80.1168L142.303 79.7024L142.041 79.2821C141.902 79.0586 141.762 78.8381 141.621 78.6117C141.08 79.016 140.515 79.3896 139.927 79.7306C139.829 79.7327 139.73 79.7402 139.632 79.7528L139.771 79.8194C136.945 81.4127 133.734 82.2903 130.447 82.3679C130.291 82.3679 130.135 82.3679 129.979 82.3679C129.948 82.3709 129.402 82.6787 129.382 82.658Z" fill="#FBB089"/>
<path d="M143.777 68.82C143.745 68.8022 143.712 68.783 143.678 68.7667C144.471 69.3767 145.18 70.0804 145.785 70.8609C145.327 70.0179 144.632 69.3116 143.777 68.82ZM139.664 79.7705C135.33 80.3773 130.035 80.9116 125.586 80.7503C125.599 80.771 125.614 80.7932 125.628 80.8139C125.931 81.3438 126.372 82.4242 126.9 82.9969C127.007 83.1212 127.138 83.2248 127.287 83.3018C127.286 83.2994 127.286 83.2968 127.287 83.2944C127.385 82.6595 127.719 82.0986 128.379 81.9624C128.379 81.9624 129.159 82.8001 129.377 82.6565C129.397 82.6772 129.936 82.3694 129.964 82.3694C130.12 82.3694 130.276 82.3694 130.432 82.3694C133.726 82.2931 136.944 81.4139 139.776 79.8164L139.664 79.7705ZM126.118 78.3423H124.825H126.12C126.12 78.3423 126.117 78.3394 126.117 78.3379L126.118 78.3423ZM126.418 70.9038L126.483 70.932C127.041 70.2009 127.689 69.5356 128.413 68.9502C127.615 69.4647 126.935 70.1278 126.416 70.8994L126.418 70.9038ZM148.103 78.3098C147.974 78.8307 147.843 79.3458 147.698 79.8652C147.612 80.1716 147.521 80.4735 147.423 80.7725C147.099 81.403 146.775 82.0334 146.453 82.6639L146.355 82.7542L146.319 82.7868H146.311C146.242 82.8502 146.161 82.9004 146.072 82.9348C145.774 83.216 144.61 83.2648 144.422 83.5786C144.412 83.5939 144.405 83.6103 144.4 83.6274L144.292 82.9288L144.25 82.6595C144.068 81.4844 143.886 80.3097 143.703 79.1356C144.247 79.0438 144.752 78.955 145.213 78.8736C146.472 78.6487 147.384 78.4696 147.808 78.3838H147.826L148.075 78.3334C148.075 78.3334 148.075 78.3201 148.075 78.3127L148.103 78.3098Z" fill="#38385C"/>
<path d="M141.618 78.6087L142.038 79.2792L142.3 79.6995C142.386 79.8386 142.473 79.9762 142.556 80.1139L142.896 80.66L143.149 81.07C143.617 81.8307 144.022 82.4922 144.295 82.9422L144.253 82.6728C144.013 81.1287 143.773 79.5865 143.534 78.0463C143.483 77.7281 143.434 77.4099 143.378 77.0932C143.277 77.1924 143.177 77.2915 143.066 77.3892C142.607 77.8205 142.124 78.2276 141.618 78.6087Z" fill="#E88A78"/>
<path d="M137.904 70.1239C138.023 70.1328 138.141 70.1446 138.26 70.1594C138.36 70.1712 138.459 70.1846 138.559 70.2008C138.626 70.2112 138.693 70.2216 138.762 70.2349L138.973 70.2778L139.182 70.3252C139.274 70.3474 139.367 70.371 139.459 70.3977C139.578 70.4302 139.696 70.4658 139.812 70.5042L139.91 70.5368C139.988 70.5634 140.066 70.5886 140.141 70.6182C140.185 70.633 140.23 70.6508 140.272 70.6685L140.367 70.7055C140.405 70.7188 140.439 70.7337 140.475 70.7499C140.584 70.7958 140.69 70.8432 140.796 70.8979C140.902 70.9527 141.005 70.9971 141.108 71.0459C141.164 71.0741 141.219 71.1022 141.274 71.1332C141.328 71.1643 141.353 71.1762 141.391 71.1984L141.423 71.2176C141.446 71.2293 141.469 71.2422 141.49 71.2561L141.578 71.3064C141.932 71.5175 142.269 71.7519 142.589 72.0079L142.64 72.0494C142.876 72.2435 143.102 72.449 143.316 72.6651C143.347 72.6961 143.378 72.7287 143.408 72.7612C143.437 72.7938 143.503 72.8604 143.548 72.9092C143.593 72.9581 143.639 73.0099 143.681 73.0572C143.723 73.1046 143.785 73.1801 143.837 73.2408C143.868 73.2778 143.896 73.3148 143.924 73.3518C143.976 73.4154 144.022 73.4805 144.071 73.5471L144.181 73.7025C144.206 73.738 144.231 73.775 144.253 73.8106C144.266 73.8286 144.278 73.8474 144.289 73.8668L144.33 73.9275C144.378 74.003 144.425 74.0755 144.47 74.1554C144.515 74.2353 144.559 74.3034 144.6 74.3892C144.64 74.4751 144.682 74.5461 144.721 74.6261C144.76 74.706 144.796 74.7859 144.832 74.8658C144.851 74.9058 144.866 74.9472 144.883 74.9872C144.897 74.9502 144.912 74.9132 144.922 74.8747C144.933 74.8362 144.94 74.8244 144.947 74.7977C144.947 74.7977 144.947 74.7977 144.947 74.7903C144.952 74.7819 144.955 74.773 144.957 74.7637C144.957 74.7637 144.957 74.7637 144.957 74.7563C144.966 74.7282 144.974 74.7001 144.982 74.6719C145.002 74.6068 145.018 74.5417 145.032 74.4751C145.032 74.4514 145.043 74.4277 145.047 74.4026C145.052 74.3774 145.058 74.3537 145.061 74.3301C145.064 74.3064 145.075 74.2472 145.082 74.2072C145.082 74.1998 145.082 74.1924 145.082 74.185V74.1524C145.082 74.1169 145.091 74.0829 145.094 74.0488C145.094 74.0414 145.094 74.0326 145.094 74.0252C145.094 73.9719 145.105 73.9201 145.108 73.8668C145.111 73.8135 145.108 73.7765 145.108 73.7321C145.108 73.6566 145.108 73.5841 145.108 73.5057C145.11 73.4914 145.11 73.477 145.108 73.4628C145.108 73.4346 145.108 73.405 145.108 73.3754V73.2955C145.108 73.2378 145.099 73.1786 145.091 73.1209C145.091 73.1209 145.091 73.1076 145.091 73.1016C145.091 73.0424 145.075 72.9833 145.066 72.9241C145.057 72.8649 145.05 72.8352 145.041 72.7908C145.032 72.7464 145.024 72.702 145.013 72.6576C145.01 72.6381 145.005 72.6188 144.999 72.5999C144.999 72.5733 144.985 72.5466 144.979 72.52C144.972 72.4934 144.96 72.4475 144.947 72.4105C144.935 72.3735 144.947 72.3794 144.935 72.3646C144.922 72.3498 144.915 72.2965 144.904 72.264C144.876 72.1781 144.844 72.0923 144.81 72.0079C144.795 71.9694 144.779 71.9295 144.762 71.891C144.724 71.8052 144.684 71.7193 144.64 71.635C144.624 71.6054 144.61 71.5758 144.593 71.5462C144.567 71.4959 144.537 71.4455 144.509 71.3982L144.456 71.3108C144.437 71.2812 144.42 71.2516 144.401 71.2235C144.364 71.1663 144.325 71.1101 144.284 71.0548L144.202 70.9438C144.16 70.889 144.114 70.8358 144.071 70.784C144.027 70.7322 143.979 70.6804 143.932 70.636C143.885 70.5916 143.868 70.5679 143.835 70.5368C143.802 70.5057 143.742 70.448 143.693 70.4036L143.537 70.2763C143.503 70.2497 143.47 70.2216 143.436 70.1964L143.294 70.0928L143.196 70.0262C143.146 69.9936 143.096 69.9611 143.04 69.9315L142.884 69.8427C142.848 69.8234 142.813 69.8042 142.776 69.7864C142.738 69.7687 142.706 69.7509 142.668 69.7346L142.568 69.6888L142.428 69.6296L142.322 69.5881L142.275 69.5718L142.225 69.5541L142.125 69.5201L141.997 69.4816C141.894 69.452 141.79 69.4253 141.685 69.4016L141.537 69.3721L141.397 69.3484L141.35 69.341H141.327L141.21 69.3247C141.161 69.3247 141.113 69.3128 141.063 69.3099H140.997L140.887 69.3025C140.827 69.3025 140.77 69.3025 140.71 69.3025H140.673C140.612 69.3025 140.55 69.3025 140.489 69.3025C140.388 69.3025 140.289 69.3099 140.189 69.3188L140.091 69.3276C140.024 69.3276 139.959 69.3424 139.893 69.3513L139.696 69.3839C139.631 69.3957 139.565 69.409 139.501 69.4238C139.437 69.4386 139.374 69.4534 139.31 69.4712L139.133 69.523C139.12 69.5266 139.107 69.531 139.094 69.5363L138.996 69.56L138.938 69.5792L138.774 69.6429C138.728 69.6606 138.684 69.6814 138.639 69.7021L138.52 69.7583C138.509 69.7623 138.498 69.7678 138.489 69.7746L138.377 69.8323C138.212 69.9193 138.054 70.0167 137.904 70.1239ZM148.077 78.3172C148.077 78.3246 148.077 78.3305 148.077 78.3379L147.827 78.3882L148.007 78.3379L148.077 78.3172Z" fill="#82635A"/>
<path d="M142.851 83.0443L139.051 81.6768C139.754 81.4722 140.51 81.4956 141.198 81.7432C141.886 81.9908 142.467 82.4485 142.851 83.0443ZM133.51 82.0823L130.234 83.0458C130.617 82.5952 131.134 82.2631 131.717 82.0916C132.3 81.92 132.924 81.9168 133.51 82.0823ZM132.34 83.0783C132.772 82.9496 133.276 83.3373 133.481 83.9412C133.687 84.545 133.491 85.14 133.059 85.2732C132.627 85.4064 132.113 85.0142 131.915 84.4088C131.717 83.8035 131.906 83.2056 132.34 83.0783ZM139.52 83.1671C139.973 83.1286 140.388 83.6111 140.447 84.2386C140.506 84.8662 140.191 85.4123 139.739 85.4522C139.286 85.4922 138.873 85.0082 138.814 84.3792C138.754 83.7502 139.069 83.2056 139.52 83.1671Z" fill="#101029"/>
<path d="M134.998 82.7009C135.18 83.5564 135.363 84.4113 135.547 85.2658C135.513 85.1577 135.453 85.0588 135.371 84.9773C135.289 84.8958 135.188 84.8342 135.076 84.7974C134.963 84.7607 134.843 84.75 134.726 84.7662C134.608 84.7824 134.497 84.825 134.4 84.8905C134.304 84.956 134.225 85.0425 134.171 85.1427C134.117 85.243 134.088 85.354 134.089 85.4667C134.089 85.5793 134.118 85.6902 134.173 85.7902C134.227 85.8902 134.306 85.9763 134.403 86.0413L136.392 87.3733" fill="#FB6562"/>
<path d="M134.472 88.652C136.839 89.318 139.609 88.3368 140.937 86.3624C141.012 87.121 140.827 87.8824 140.41 88.5332C139.992 89.184 139.364 89.6892 138.619 89.9736C137.112 90.5094 135.265 89.9574 134.472 88.652Z" fill="white"/>
<path d="M105.284 88.1799C105.603 86.1375 105.92 84.0956 106.238 82.0542C106.325 81.4962 105.667 81.0182 105.078 81.101C104.49 81.1839 104.049 81.693 103.879 82.2303C103.709 82.7675 103.757 83.3477 103.807 83.9101C103.183 83.6733 102.543 83.4335 101.871 83.401C101.199 83.3684 100.476 83.58 100.077 84.0936C99.7351 84.5342 99.519 85.0512 99.4498 85.5945C99.3806 86.1377 99.4607 86.6887 99.6822 87.1939C99.9037 87.6991 100.259 88.1414 100.714 88.4778C101.169 88.8142 101.708 89.0333 102.278 89.1138C102.309 89.3032 102.341 89.4926 102.37 89.6806C103.222 88.9953 104.214 88.4844 105.284 88.1799Z" fill="#FBB089"/>
<path d="M107.431 90.2252L102.04 91.9169C101.866 91.1759 101.697 90.4137 101.533 89.6303L105.589 88.0408C105.589 88.0408 106.302 88.8488 107.431 90.2252ZM148.103 77.5653C148.103 77.8184 148.094 78.07 148.077 78.3172L148.005 78.3379H124.246C124.227 78.0833 124.218 77.8258 124.218 77.5653C124.218 77.2604 124.231 76.96 124.256 76.661C124.43 74.6048 125.192 72.6328 126.461 70.9575C127.729 69.2822 129.456 67.9672 131.455 67.1544C133.453 66.3416 135.647 66.0618 137.801 66.3451C139.955 66.6285 141.986 67.4642 143.676 68.7623C145.444 70.1197 146.766 71.9275 147.489 73.9734C147.578 74.2235 147.656 74.478 147.726 74.7356C147.976 75.66 148.103 76.6108 148.103 77.5653Z" fill="#F75C3D"/>
<path d="M148.005 78.3379L147.826 78.3882H147.808C147.384 78.474 146.472 78.6531 145.213 78.8781C144.745 78.9595 144.247 79.0483 143.703 79.14C142.517 79.3384 141.146 79.5544 139.662 79.7616C135.328 80.3684 130.034 80.9027 125.585 80.7414C123.368 80.663 121.363 80.4099 119.789 79.9082C119.767 79.9008 119.789 79.8934 119.789 79.8726C119.685 78.0567 124.218 78.3394 124.218 78.3394H126.126H138.575H148.013L148.005 78.3379Z" fill="#E44531"/>
</svg>
